<svg xmlns="http://www.w3.org/2000/svg" viewBox="0 0 179.75 150.37"><defs><style>.cls-1,.cls-3{fill:#fff;stroke-miterlimit:10;}.cls-1{stroke:#f5ea61;}.cls-2{fill:#3c91e6;}.cls-3{stroke:#3c91e6;}.cls-4{fill:#f5ea61;}.cls-5{fill:#403f4c;}</style></defs><title>logo1</title><g id="Camada_2" data-name="Camada 2"><g id="Camada_2-2" data-name="Camada 2"><rect class="cls-1" x="9.81" y="0.5" width="86.64" height="142.25"/><rect class="cls-2" x="20.21" y="22.83" width="16.33" height="27.3"/><rect class="cls-2" x="43.43" y="22.83" width="16.33" height="27.3"/><rect class="cls-2" x="67.14" y="22.83" width="16.33" height="27.3"/><rect class="cls-2" x="19.97" y="57.97" width="16.33" height="27.3"/><rect class="cls-2" x="43.19" y="57.97" width="16.33" height="27.3"/><rect class="cls-2" x="66.9" y="57.97" width="16.33" height="27.3"/><rect class="cls-2" x="19.97" y="93.29" width="16.33" height="27.3"/><rect class="cls-2" x="43.19" y="93.29" width="16.33" height="27.3"/><rect class="cls-2" x="66.9" y="93.29" width="16.33" height="27.3"/><polygon class="cls-3" points="171.47 142.74 51.6 142.74 111.53 38.94 123.19 59.13 143.16 93.71 171.47 142.74"/><polygon class="cls-2" points="143.16 45.33 143.16 93.71 123.19 59.13 123.19 45.33 143.16 45.33"/><rect class="cls-4" x="93.16" y="90.84" width="16.11" height="16.11"/><rect class="cls-4" x="113.49" y="90.84" width="16.11" height="16.11"/><rect class="cls-4" x="93.16" y="110.9" width="16.11" height="16.11"/><rect class="cls-4" x="113.49" y="110.9" width="16.11" height="16.11"/><polygon class="cls-5" points="172.15 130.41 172.15 140.39 7.58 140.39 7.58 130.41 0 130.41 0 150.37 179.75 150.37 179.75 130.41 172.15 130.41"/></g></g></svg>