<svg xmlns="http://www.w3.org/2000/svg" viewBox="0 0 556.45 153.74"><defs><style>.cls-1,.cls-3{fill:#fff;stroke-miterlimit:10;}.cls-1{stroke:#f5ea61;}.cls-2{fill:#3c91e6;}.cls-3{stroke:#3c91e6;}.cls-4{fill:#f5ea61;}.cls-5{fill:#403f4c;}</style></defs><title>logo2</title><g id="Camada_2" data-name="Camada 2"><g id="Camada_2-2" data-name="Camada 2"><rect class="cls-1" x="10.03" y="0.5" width="88.59" height="145.44"/><rect class="cls-2" x="20.67" y="23.33" width="16.7" height="27.92"/><rect class="cls-2" x="44.41" y="23.33" width="16.7" height="27.92"/><rect class="cls-2" x="68.65" y="23.33" width="16.7" height="27.92"/><rect class="cls-2" x="20.41" y="59.26" width="16.7" height="27.92"/><rect class="cls-2" x="44.16" y="59.26" width="16.7" height="27.92"/><rect class="cls-2" x="68.4" y="59.26" width="16.7" height="27.92"/><rect class="cls-2" x="20.41" y="95.38" width="16.7" height="27.92"/><rect class="cls-2" x="44.16" y="95.38" width="16.7" height="27.92"/><rect class="cls-2" x="68.4" y="95.38" width="16.7" height="27.92"/><polygon class="cls-3" points="175.32 145.94 52.76 145.94 114.04 39.8 125.96 60.45 146.38 95.8 175.32 145.94"/><polygon class="cls-2" points="146.38 46.34 146.38 95.8 125.96 60.45 125.96 46.34 146.38 46.34"/><rect class="cls-4" x="95.26" y="92.87" width="16.47" height="16.47"/><rect class="cls-4" x="116.04" y="92.87" width="16.47" height="16.47"/><rect class="cls-4" x="95.26" y="113.38" width="16.47" height="16.47"/><rect class="cls-4" x="116.04" y="113.38" width="16.47" height="16.47"/><polygon class="cls-5" points="176.02 133.33 176.02 143.53 7.76 143.53 7.76 133.33 0 133.33 0 153.74 183.79 153.74 183.79 133.33 176.02 133.33"/><path d="M216.3,70.63a23,23,0,0,0-9,1.74,19.55,19.55,0,0,0-7.08,5.06,23.58,23.58,0,0,0-4.61,8.19,34.39,34.39,0,0,0-1.66,11.14,35.73,35.73,0,0,0,1.51,10.93,21.42,21.42,0,0,0,4.35,7.88,18,18,0,0,0,6.91,4.77,25.1,25.1,0,0,0,9.25,1.6,46.86,46.86,0,0,0,7.57-.63,40.68,40.68,0,0,0,7.23-1.84v11.11a50,50,0,0,1-7.38,1.66,53.26,53.26,0,0,1-8.2.61,38.52,38.52,0,0,1-14.6-2.56,28.17,28.17,0,0,1-10.52-7.21,30.48,30.48,0,0,1-6.35-11.17,46,46,0,0,1-2.12-14.36,47.43,47.43,0,0,1,2.27-15,35.39,35.39,0,0,1,6.54-12,29.82,29.82,0,0,1,10.69-7.95,35.49,35.49,0,0,1,14.53-3,49.17,49.17,0,0,1,7.86.6A36.86,36.86,0,0,1,230.17,62V73a44,44,0,0,0-7.27-1.84A42.93,42.93,0,0,0,216.3,70.63Z"/><path d="M254.93,120.73h32.13v10.8H243V61H285.3v10.8H254.93V90.07H281v10.8H254.93Z"/><path d="M348.09,82.22a20.5,20.5,0,0,1-3.78,12.51q-3.78,5.14-11.7,7.62v.21l19.44,29H337.69l-17.77-27.29h-8.21v27.29h-12V61h19.88a65.63,65.63,0,0,1,9.17.61,31.42,31.42,0,0,1,7.28,1.82,19.15,19.15,0,0,1,8.89,7A20.65,20.65,0,0,1,348.09,82.22ZM317.62,93.44a52.48,52.48,0,0,0,7-.39,20.46,20.46,0,0,0,4.81-1.19,9.43,9.43,0,0,0,5-4A12,12,0,0,0,335.79,82a11.05,11.05,0,0,0-1.1-5A7.7,7.7,0,0,0,331,73.48a15,15,0,0,0-4.3-1.24,43.89,43.89,0,0,0-6.4-.4h-8.55v21.6Z"/><path d="M386.77,114.31q1.8-5.75,2.61-8.2t3.39-10l12.11-35h12.65L392,131.53H381.25L355.71,61h12.75l12.11,35q2.58,7.59,3.39,10t2.61,8.2Z"/><path d="M426.32,131.53V61h12v70.49Z"/><path d="M485.69,70.63a22.92,22.92,0,0,0-9,1.74,19.38,19.38,0,0,0-7.08,5.06A23.59,23.59,0,0,0,465,85.62a34.39,34.39,0,0,0-1.66,11.14,36,36,0,0,0,1.51,10.93,21.42,21.42,0,0,0,4.35,7.88,18,18,0,0,0,6.91,4.77,25.1,25.1,0,0,0,9.25,1.6,46.86,46.86,0,0,0,7.57-.63,40.68,40.68,0,0,0,7.23-1.84v11.11a50.19,50.19,0,0,1-7.37,1.66,53.48,53.48,0,0,1-8.21.61,38.52,38.52,0,0,1-14.6-2.56,28.17,28.17,0,0,1-10.52-7.21,30.48,30.48,0,0,1-6.35-11.17A46,46,0,0,1,451,97.55a47.43,47.43,0,0,1,2.27-15,35.39,35.39,0,0,1,6.54-12,29.82,29.82,0,0,1,10.69-7.95,35.49,35.49,0,0,1,14.53-3,49.17,49.17,0,0,1,7.86.6A36.64,36.64,0,0,1,499.56,62V73a44,44,0,0,0-7.27-1.84A42.93,42.93,0,0,0,485.69,70.63Z"/><path d="M524.32,120.73h32.13v10.8H512.36V61h42.33v10.8H524.32V90.07h26.07v10.8H524.32Z"/></g></g></svg>